<?xml version="1.0" encoding="UTF-8" standalone="no"?>
<svg
   width="290"
   height="202"
   viewBox="0 0 290 202"
   fill="none"
   version="1.1"
   id="svg826"
   sodipodi:docname="box.svg"
   inkscape:version="1.1.1 (c3084ef, 2021-09-22)"
   xmlns:inkscape="http://www.inkscape.org/namespaces/inkscape"
   xmlns:sodipodi="http://sodipodi.sourceforge.net/DTD/sodipodi-0.dtd"
   xmlns="http://www.w3.org/2000/svg"
   xmlns:svg="http://www.w3.org/2000/svg">
  <defs
     id="defs830" />
  <sodipodi:namedview
     id="namedview828"
     pagecolor="#ffffff"
     bordercolor="#666666"
     borderopacity="1.0"
     inkscape:pageshadow="2"
     inkscape:pageopacity="0.0"
     inkscape:pagecheckerboard="0"
     showgrid="false"
     inkscape:zoom="2.8217822"
     inkscape:cx="145.12105"
     inkscape:cy="101"
     inkscape:window-width="1312"
     inkscape:window-height="792"
     inkscape:window-x="0"
     inkscape:window-y="25"
     inkscape:window-maximized="0"
     inkscape:current-layer="svg826" />
  <path
     fill-rule="evenodd"
     clip-rule="evenodd"
     d="M11 -0.000366211C4.92487 -0.000366211 0 4.9245 0 10.9996V99.4362C0 108.023 9.39971 113.299 16.7298 108.826L56.8368 84.3526H159C165.075 84.3526 170 79.4277 170 73.3526V10.9996C170 4.92449 165.075 -0.000366211 159 -0.000366211H11ZM18 86.9645V17.9996H152V66.3526H54.8697C52.8481 66.3526 50.8656 66.9097 49.1399 67.9627L18 86.9645ZM278 86.9645C284.075 86.9645 289 91.8894 289 97.9645V186.401C289 188.153 289.097 189.941 289.189 191.639V191.64V191.641C289.549 198.265 289.834 203.525 284 199.965L232.163 171.317H130C123.925 171.317 119 166.393 119 160.317V97.9645C119 91.8894 123.925 86.9645 130 86.9645H278ZM42.5 55.9996C49.4036 55.9996 55 50.4032 55 43.4996C55 36.5961 49.4036 30.9996 42.5 30.9996C35.5964 30.9996 30 36.5961 30 43.4996C30 50.4032 35.5964 55.9996 42.5 55.9996ZM82.5 55.9996C89.4036 55.9996 95 50.4032 95 43.4996C95 36.5961 89.4036 30.9996 82.5 30.9996C75.5964 30.9996 70 36.5961 70 43.4996C70 50.4032 75.5964 55.9996 82.5 55.9996ZM135 43.4996C135 50.4032 129.404 55.9996 122.5 55.9996C115.596 55.9996 110 50.4032 110 43.4996C110 36.5961 115.596 30.9996 122.5 30.9996C129.404 30.9996 135 36.5961 135 43.4996Z"
     fill="black"
     id="path824"
     style="fill:#ffffff" />
</svg>
