<?xml version="1.0" encoding="UTF-8" standalone="no"?>
<svg
   width="165"
   height="165"
   viewBox="0 0 165 165"
   fill="none"
   version="1.1"
   id="svg835"
   sodipodi:docname="happy.svg"
   inkscape:version="1.1.1 (c3084ef, 2021-09-22)"
   xmlns:inkscape="http://www.inkscape.org/namespaces/inkscape"
   xmlns:sodipodi="http://sodipodi.sourceforge.net/DTD/sodipodi-0.dtd"
   xmlns="http://www.w3.org/2000/svg"
   xmlns:svg="http://www.w3.org/2000/svg">
  <defs
     id="defs839" />
  <sodipodi:namedview
     id="namedview837"
     pagecolor="#ffffff"
     bordercolor="#666666"
     borderopacity="1.0"
     inkscape:pageshadow="2"
     inkscape:pageopacity="0.0"
     inkscape:pagecheckerboard="0"
     showgrid="false"
     inkscape:zoom="2.5292112"
     inkscape:cx="99.438117"
     inkscape:cy="107.54341"
     inkscape:window-width="1312"
     inkscape:window-height="792"
     inkscape:window-x="0"
     inkscape:window-y="25"
     inkscape:window-maximized="0"
     inkscape:current-layer="svg835" />
  <mask
     id="path-1-inside-1_12_104"
     fill="white">
    <path
       d="M117.109 88.5103C122.08 88.4998 126.188 92.5425 125.464 97.4601C123.943 107.789 119.779 117.399 113.446 124.928C105.308 134.602 94.2555 140.05 82.7187 140.075C71.1818 140.099 60.1059 134.698 51.9275 125.059C45.562 117.556 41.3578 107.965 39.793 97.6421C39.048 92.7276 43.1388 88.6675 48.1094 88.6569L82.6093 88.5836L117.109 88.5103Z"
       id="path824" />
  </mask>
  <path
     d="M117.109 88.5103C122.08 88.4998 126.188 92.5425 125.464 97.4601C123.943 107.789 119.779 117.399 113.446 124.928C105.308 134.602 94.2555 140.05 82.7187 140.075C71.1818 140.099 60.1059 134.698 51.9275 125.059C45.562 117.556 41.3578 107.965 39.793 97.6421C39.048 92.7276 43.1388 88.6675 48.1094 88.6569L82.6093 88.5836L117.109 88.5103Z"
     stroke="black"
     stroke-width="26"
     mask="url(#path-1-inside-1_12_104)"
     id="path827"
     style="fill:none;stroke:#ffffff;stroke-opacity:1" />
  <ellipse
     cx="82.5"
     cy="82.5"
     stroke="black"
     stroke-width="18"
     id="circle829"
     style="fill:none;stroke:#ffffff;stroke-opacity:1"
     rx="73.500473"
     ry="73.5" />
  <ellipse
     cx="55.5"
     cy="70.5"
     rx="7.5"
     ry="12.5"
     fill="black"
     id="ellipse831"
     style="fill:#ffffff" />
  <ellipse
     cx="110.5"
     cy="70.5"
     rx="7.5"
     ry="12.5"
     fill="black"
     id="ellipse833"
     style="fill:#ffffff" />
  <ellipse
     style="fill:none;stroke:#ffffff"
     id="path975"
     cx="76.110687"
     cy="81.646011"
     rx="85.20443"
     ry="83.62291" />
</svg>
