<?xml version="1.0" encoding="UTF-8" standalone="no"?>
<svg
   width="165"
   height="105"
   viewBox="0 0 165 105"
   fill="none"
   version="1.1"
   id="svg826"
   sodipodi:docname="mail.svg"
   inkscape:version="1.1.1 (c3084ef, 2021-09-22)"
   xmlns:inkscape="http://www.inkscape.org/namespaces/inkscape"
   xmlns:sodipodi="http://sodipodi.sourceforge.net/DTD/sodipodi-0.dtd"
   xmlns="http://www.w3.org/2000/svg"
   xmlns:svg="http://www.w3.org/2000/svg">
  <defs
     id="defs830" />
  <sodipodi:namedview
     id="namedview828"
     pagecolor="#ffffff"
     bordercolor="#666666"
     borderopacity="1.0"
     inkscape:pageshadow="2"
     inkscape:pageopacity="0.0"
     inkscape:pagecheckerboard="0"
     showgrid="false"
     inkscape:zoom="5.4285714"
     inkscape:cx="82.434211"
     inkscape:cy="52.5"
     inkscape:window-width="1312"
     inkscape:window-height="792"
     inkscape:window-x="0"
     inkscape:window-y="25"
     inkscape:window-maximized="0"
     inkscape:current-layer="svg826" />
  <path
     fill-rule="evenodd"
     clip-rule="evenodd"
     d="M16 29.0259V89H149V30.5393L87.827 67.5984C87.4667 67.827 87.0918 68.0287 86.7057 68.2027C84.3766 69.2524 81.6385 69.2954 79.2093 68.1638C78.8852 68.0128 78.5667 67.841 78.2554 67.6478L78.093 67.5471C78.4513 67.7797 78.8245 67.9855 79.2093 68.1638M29.1478 16L83.0559 49.4434L138.26 16H29.1478ZM10 0C4.47715 0 0 4.47715 0 10V95C0 100.523 4.47715 105 10 105H155C160.523 105 165 100.523 165 95V10C165 4.47715 160.523 0 155 0H10Z"
     fill="black"
     id="path824"
     style="fill:#ffffff" />
</svg>
