<?xml version="1.0" encoding="UTF-8" standalone="no"?>
<svg
   width="100"
   height="133"
   viewBox="0 0 100 133"
   fill="none"
   version="1.1"
   id="svg826"
   sodipodi:docname="map.svg"
   inkscape:version="1.1.1 (c3084ef, 2021-09-22)"
   xmlns:inkscape="http://www.inkscape.org/namespaces/inkscape"
   xmlns:sodipodi="http://sodipodi.sourceforge.net/DTD/sodipodi-0.dtd"
   xmlns="http://www.w3.org/2000/svg"
   xmlns:svg="http://www.w3.org/2000/svg">
  <defs
     id="defs830" />
  <sodipodi:namedview
     id="namedview828"
     pagecolor="#ffffff"
     bordercolor="#666666"
     borderopacity="1.0"
     inkscape:pageshadow="2"
     inkscape:pageopacity="0.0"
     inkscape:pagecheckerboard="0"
     showgrid="false"
     inkscape:zoom="4.2857143"
     inkscape:cx="50.05"
     inkscape:cy="66.5"
     inkscape:window-width="1312"
     inkscape:window-height="792"
     inkscape:window-x="0"
     inkscape:window-y="25"
     inkscape:window-maximized="0"
     inkscape:current-layer="svg826" />
  <path
     fill-rule="evenodd"
     clip-rule="evenodd"
     d="M75 96C97 78 100 60.3571 100 50C100 22.3858 77.6142 0 50 0C22.3858 0 0 22.3858 0 50C0 60.3571 0 78 27 97C40.7366 109.542 43.4155 119.944 45.0494 126.288C46.1513 130.567 46.7779 133 50 133C53.1602 133 53.8237 130.659 55.0109 126.471C56.8291 120.057 59.8756 109.309 75 96ZM50 78C63.8071 78 75 66.8071 75 53C75 39.1929 63.8071 28 50 28C36.1929 28 25 39.1929 25 53C25 66.8071 36.1929 78 50 78Z"
     fill="black"
     id="path824"
     style="fill:#ffffff" />
</svg>
